<svg width="1440" height="801" viewBox="0 0 1440 801" fill="none" xmlns="http://www.w3.org/2000/svg">
<g clip-path="url(#clip0_303_3542)">
<rect width="1440" height="800" fill="white"/>
<circle opacity="0.5" cx="-2" cy="-12" r="174" stroke="#FDAE03" stroke-width="48"/>
<circle opacity="0.5" cx="1430" cy="110" r="106" stroke="#FDAE03" stroke-width="48"/>
<g opacity="0.5" clip-path="url(#clip1_303_3542)">
<path d="M1241.98 614.956C1243.62 614.956 1244.96 613.622 1244.96 611.978C1244.96 610.333 1243.62 609 1241.98 609C1240.33 609 1239 610.333 1239 611.978C1239 613.622 1240.33 614.956 1241.98 614.956Z" fill="#FDAE03"/>
<path d="M1241.98 640.911C1243.62 640.911 1244.96 639.578 1244.96 637.933C1244.96 636.289 1243.62 634.956 1241.98 634.956C1240.33 634.956 1239 636.289 1239 637.933C1239 639.578 1240.33 640.911 1241.98 640.911Z" fill="#FDAE03"/>
<path d="M1241.98 692.822C1243.62 692.822 1244.96 691.489 1244.96 689.845C1244.96 688.2 1243.62 686.867 1241.98 686.867C1240.33 686.867 1239 688.2 1239 689.845C1239 691.489 1240.33 692.822 1241.98 692.822Z" fill="#FDAE03"/>
<path d="M1241.98 744.734C1243.62 744.734 1244.96 743.401 1244.96 741.756C1244.96 740.111 1243.62 738.778 1241.98 738.778C1240.33 738.778 1239 740.111 1239 741.756C1239 743.401 1240.33 744.734 1241.98 744.734Z" fill="#FDAE03"/>
<path d="M1241.98 770.689C1243.62 770.689 1244.96 769.356 1244.96 767.711C1244.96 766.066 1243.62 764.733 1241.98 764.733C1240.33 764.733 1239 766.066 1239 767.711C1239 769.356 1240.33 770.689 1241.98 770.689Z" fill="#FDAE03"/>
<path d="M1241.98 666.867C1243.62 666.867 1244.96 665.533 1244.96 663.889C1244.96 662.244 1243.62 660.911 1241.98 660.911C1240.33 660.911 1239 662.244 1239 663.889C1239 665.533 1240.33 666.867 1241.98 666.867Z" fill="#FDAE03"/>
<path d="M1241.98 718.778C1243.62 718.778 1244.96 717.445 1244.96 715.8C1244.96 714.155 1243.62 712.822 1241.98 712.822C1240.33 712.822 1239 714.155 1239 715.8C1239 717.445 1240.33 718.778 1241.98 718.778Z" fill="#FDAE03"/>
<path d="M1267.93 614.956C1269.58 614.956 1270.91 613.622 1270.91 611.978C1270.91 610.333 1269.58 609 1267.93 609C1266.29 609 1264.96 610.333 1264.96 611.978C1264.96 613.622 1266.29 614.956 1267.93 614.956Z" fill="#FDAE03"/>
<path d="M1267.93 640.911C1269.58 640.911 1270.91 639.578 1270.91 637.933C1270.91 636.289 1269.58 634.956 1267.93 634.956C1266.29 634.956 1264.96 636.289 1264.96 637.933C1264.96 639.578 1266.29 640.911 1267.93 640.911Z" fill="#FDAE03"/>
<path d="M1267.93 692.822C1269.58 692.822 1270.91 691.489 1270.91 689.845C1270.91 688.2 1269.58 686.867 1267.93 686.867C1266.29 686.867 1264.96 688.2 1264.96 689.845C1264.96 691.489 1266.29 692.822 1267.93 692.822Z" fill="#FDAE03"/>
<path d="M1267.93 744.734C1269.58 744.734 1270.91 743.401 1270.91 741.756C1270.91 740.111 1269.58 738.778 1267.93 738.778C1266.29 738.778 1264.96 740.111 1264.96 741.756C1264.96 743.401 1266.29 744.734 1267.93 744.734Z" fill="#FDAE03"/>
<path d="M1267.93 770.689C1269.58 770.689 1270.91 769.356 1270.91 767.711C1270.91 766.066 1269.58 764.733 1267.93 764.733C1266.29 764.733 1264.96 766.066 1264.96 767.711C1264.96 769.356 1266.29 770.689 1267.93 770.689Z" fill="#FDAE03"/>
<path d="M1267.93 666.867C1269.58 666.867 1270.91 665.533 1270.91 663.889C1270.91 662.244 1269.58 660.911 1267.93 660.911C1266.29 660.911 1264.96 662.244 1264.96 663.889C1264.96 665.533 1266.29 666.867 1267.93 666.867Z" fill="#FDAE03"/>
<path d="M1267.93 718.778C1269.58 718.778 1270.91 717.445 1270.91 715.8C1270.91 714.155 1269.58 712.822 1267.93 712.822C1266.29 712.822 1264.96 714.155 1264.96 715.8C1264.96 717.445 1266.29 718.778 1267.93 718.778Z" fill="#FDAE03"/>
<path d="M1293.89 614.956C1295.53 614.956 1296.87 613.622 1296.87 611.978C1296.87 610.333 1295.53 609 1293.89 609C1292.24 609 1290.91 610.333 1290.91 611.978C1290.91 613.622 1292.24 614.956 1293.89 614.956Z" fill="#FDAE03"/>
<path d="M1293.89 640.911C1295.53 640.911 1296.87 639.578 1296.87 637.933C1296.87 636.289 1295.53 634.956 1293.89 634.956C1292.24 634.956 1290.91 636.289 1290.91 637.933C1290.91 639.578 1292.24 640.911 1293.89 640.911Z" fill="#FDAE03"/>
<path d="M1293.89 692.822C1295.53 692.822 1296.87 691.489 1296.87 689.845C1296.87 688.2 1295.53 686.867 1293.89 686.867C1292.24 686.867 1290.91 688.2 1290.91 689.845C1290.91 691.489 1292.24 692.822 1293.89 692.822Z" fill="#FDAE03"/>
<path d="M1293.89 744.734C1295.53 744.734 1296.87 743.401 1296.87 741.756C1296.87 740.111 1295.53 738.778 1293.89 738.778C1292.24 738.778 1290.91 740.111 1290.91 741.756C1290.91 743.401 1292.24 744.734 1293.89 744.734Z" fill="#FDAE03"/>
<path d="M1293.89 770.689C1295.53 770.689 1296.87 769.356 1296.87 767.711C1296.87 766.066 1295.53 764.733 1293.89 764.733C1292.24 764.733 1290.91 766.066 1290.91 767.711C1290.91 769.356 1292.24 770.689 1293.89 770.689Z" fill="#FDAE03"/>
<path d="M1293.89 666.867C1295.53 666.867 1296.87 665.533 1296.87 663.889C1296.87 662.244 1295.53 660.911 1293.89 660.911C1292.24 660.911 1290.91 662.244 1290.91 663.889C1290.91 665.533 1292.24 666.867 1293.89 666.867Z" fill="#FDAE03"/>
<path d="M1293.89 718.778C1295.53 718.778 1296.87 717.445 1296.87 715.8C1296.87 714.155 1295.53 712.822 1293.89 712.822C1292.24 712.822 1290.91 714.155 1290.91 715.8C1290.91 717.445 1292.24 718.778 1293.89 718.778Z" fill="#FDAE03"/>
<path d="M1319.84 614.956C1321.49 614.956 1322.82 613.622 1322.82 611.978C1322.82 610.333 1321.49 609 1319.84 609C1318.2 609 1316.87 610.333 1316.87 611.978C1316.87 613.622 1318.2 614.956 1319.84 614.956Z" fill="#FDAE03"/>
<path d="M1319.84 640.911C1321.49 640.911 1322.82 639.578 1322.82 637.933C1322.82 636.289 1321.49 634.956 1319.84 634.956C1318.2 634.956 1316.87 636.289 1316.87 637.933C1316.87 639.578 1318.2 640.911 1319.84 640.911Z" fill="#FDAE03"/>
<path d="M1319.84 692.822C1321.49 692.822 1322.82 691.489 1322.82 689.845C1322.82 688.2 1321.49 686.867 1319.84 686.867C1318.2 686.867 1316.87 688.2 1316.87 689.845C1316.87 691.489 1318.2 692.822 1319.84 692.822Z" fill="#FDAE03"/>
<path d="M1319.84 744.734C1321.49 744.734 1322.82 743.401 1322.82 741.756C1322.82 740.111 1321.49 738.778 1319.84 738.778C1318.2 738.778 1316.87 740.111 1316.87 741.756C1316.87 743.401 1318.2 744.734 1319.84 744.734Z" fill="#FDAE03"/>
<path d="M1319.84 770.689C1321.49 770.689 1322.82 769.356 1322.82 767.711C1322.82 766.066 1321.49 764.733 1319.84 764.733C1318.2 764.733 1316.87 766.066 1316.87 767.711C1316.87 769.356 1318.2 770.689 1319.84 770.689Z" fill="#FDAE03"/>
<path d="M1319.84 666.867C1321.49 666.867 1322.82 665.533 1322.82 663.889C1322.82 662.244 1321.49 660.911 1319.84 660.911C1318.2 660.911 1316.87 662.244 1316.87 663.889C1316.87 665.533 1318.2 666.867 1319.84 666.867Z" fill="#FDAE03"/>
<path d="M1319.84 718.778C1321.49 718.778 1322.82 717.445 1322.82 715.8C1322.82 714.155 1321.49 712.822 1319.84 712.822C1318.2 712.822 1316.87 714.155 1316.87 715.8C1316.87 717.445 1318.2 718.778 1319.84 718.778Z" fill="#FDAE03"/>
<path d="M1345.8 614.956C1347.44 614.956 1348.78 613.622 1348.78 611.978C1348.78 610.333 1347.44 609 1345.8 609C1344.16 609 1342.82 610.333 1342.82 611.978C1342.82 613.622 1344.16 614.956 1345.8 614.956Z" fill="#FDAE03"/>
<path d="M1345.8 640.911C1347.44 640.911 1348.78 639.578 1348.78 637.933C1348.78 636.289 1347.44 634.956 1345.8 634.956C1344.16 634.956 1342.82 636.289 1342.82 637.933C1342.82 639.578 1344.16 640.911 1345.8 640.911Z" fill="#FDAE03"/>
<path d="M1345.8 692.822C1347.44 692.822 1348.78 691.489 1348.78 689.845C1348.78 688.2 1347.44 686.867 1345.8 686.867C1344.16 686.867 1342.82 688.2 1342.82 689.845C1342.82 691.489 1344.16 692.822 1345.8 692.822Z" fill="#FDAE03"/>
<path d="M1345.8 744.734C1347.44 744.734 1348.78 743.401 1348.78 741.756C1348.78 740.111 1347.44 738.778 1345.8 738.778C1344.16 738.778 1342.82 740.111 1342.82 741.756C1342.82 743.401 1344.16 744.734 1345.8 744.734Z" fill="#FDAE03"/>
<path d="M1345.8 770.689C1347.44 770.689 1348.78 769.356 1348.78 767.711C1348.78 766.066 1347.44 764.733 1345.8 764.733C1344.16 764.733 1342.82 766.066 1342.82 767.711C1342.82 769.356 1344.16 770.689 1345.8 770.689Z" fill="#FDAE03"/>
<path d="M1345.8 666.867C1347.44 666.867 1348.78 665.533 1348.78 663.889C1348.78 662.244 1347.44 660.911 1345.8 660.911C1344.16 660.911 1342.82 662.244 1342.82 663.889C1342.82 665.533 1344.16 666.867 1345.8 666.867Z" fill="#FDAE03"/>
<path d="M1345.8 718.778C1347.44 718.778 1348.78 717.445 1348.78 715.8C1348.78 714.155 1347.44 712.822 1345.8 712.822C1344.16 712.822 1342.82 714.155 1342.82 715.8C1342.82 717.445 1344.16 718.778 1345.8 718.778Z" fill="#FDAE03"/>
<path d="M1371.76 614.956C1373.4 614.956 1374.73 613.622 1374.73 611.978C1374.73 610.333 1373.4 609 1371.76 609C1370.11 609 1368.78 610.333 1368.78 611.978C1368.78 613.622 1370.11 614.956 1371.76 614.956Z" fill="#FDAE03"/>
<path d="M1371.76 640.911C1373.4 640.911 1374.73 639.578 1374.73 637.933C1374.73 636.289 1373.4 634.956 1371.76 634.956C1370.11 634.956 1368.78 636.289 1368.78 637.933C1368.78 639.578 1370.11 640.911 1371.76 640.911Z" fill="#FDAE03"/>
<path d="M1371.76 692.822C1373.4 692.822 1374.73 691.489 1374.73 689.845C1374.73 688.2 1373.4 686.867 1371.76 686.867C1370.11 686.867 1368.78 688.2 1368.78 689.845C1368.78 691.489 1370.11 692.822 1371.76 692.822Z" fill="#FDAE03"/>
<path d="M1371.76 744.734C1373.4 744.734 1374.73 743.401 1374.73 741.756C1374.73 740.111 1373.4 738.778 1371.76 738.778C1370.11 738.778 1368.78 740.111 1368.78 741.756C1368.78 743.401 1370.11 744.734 1371.76 744.734Z" fill="#FDAE03"/>
<path d="M1371.76 770.689C1373.4 770.689 1374.73 769.356 1374.73 767.711C1374.73 766.066 1373.4 764.733 1371.76 764.733C1370.11 764.733 1368.78 766.066 1368.78 767.711C1368.78 769.356 1370.11 770.689 1371.76 770.689Z" fill="#FDAE03"/>
<path d="M1371.76 666.867C1373.4 666.867 1374.73 665.533 1374.73 663.889C1374.73 662.244 1373.4 660.911 1371.76 660.911C1370.11 660.911 1368.78 662.244 1368.78 663.889C1368.78 665.533 1370.11 666.867 1371.76 666.867Z" fill="#FDAE03"/>
<path d="M1371.76 718.778C1373.4 718.778 1374.73 717.445 1374.73 715.8C1374.73 714.155 1373.4 712.822 1371.76 712.822C1370.11 712.822 1368.78 714.155 1368.78 715.8C1368.78 717.445 1370.11 718.778 1371.76 718.778Z" fill="#FDAE03"/>
<path d="M1397.71 614.956C1399.36 614.956 1400.69 613.622 1400.69 611.978C1400.69 610.333 1399.36 609 1397.71 609C1396.07 609 1394.73 610.333 1394.73 611.978C1394.73 613.622 1396.07 614.956 1397.71 614.956Z" fill="#FDAE03"/>
<path d="M1397.71 640.911C1399.36 640.911 1400.69 639.578 1400.69 637.933C1400.69 636.289 1399.36 634.956 1397.71 634.956C1396.07 634.956 1394.73 636.289 1394.73 637.933C1394.73 639.578 1396.07 640.911 1397.71 640.911Z" fill="#FDAE03"/>
<path d="M1397.71 692.822C1399.36 692.822 1400.69 691.489 1400.69 689.845C1400.69 688.2 1399.36 686.867 1397.71 686.867C1396.07 686.867 1394.73 688.2 1394.73 689.845C1394.73 691.489 1396.07 692.822 1397.71 692.822Z" fill="#FDAE03"/>
<path d="M1397.71 744.734C1399.36 744.734 1400.69 743.401 1400.69 741.756C1400.69 740.111 1399.36 738.778 1397.71 738.778C1396.07 738.778 1394.73 740.111 1394.73 741.756C1394.73 743.401 1396.07 744.734 1397.71 744.734Z" fill="#FDAE03"/>
<path d="M1397.71 770.689C1399.36 770.689 1400.69 769.356 1400.69 767.711C1400.69 766.066 1399.36 764.733 1397.71 764.733C1396.07 764.733 1394.73 766.066 1394.73 767.711C1394.73 769.356 1396.07 770.689 1397.71 770.689Z" fill="#FDAE03"/>
<path d="M1397.71 666.867C1399.36 666.867 1400.69 665.533 1400.69 663.889C1400.69 662.244 1399.36 660.911 1397.71 660.911C1396.07 660.911 1394.73 662.244 1394.73 663.889C1394.73 665.533 1396.07 666.867 1397.71 666.867Z" fill="#FDAE03"/>
<path d="M1397.71 718.778C1399.36 718.778 1400.69 717.445 1400.69 715.8C1400.69 714.155 1399.36 712.822 1397.71 712.822C1396.07 712.822 1394.73 714.155 1394.73 715.8C1394.73 717.445 1396.07 718.778 1397.71 718.778Z" fill="#FDAE03"/>
</g>
<g opacity="0.5" clip-path="url(#clip2_303_3542)">
<path d="M51.9778 414.956C53.6224 414.956 54.9556 413.622 54.9556 411.978C54.9556 410.333 53.6224 409 51.9778 409C50.3332 409 49 410.333 49 411.978C49 413.622 50.3332 414.956 51.9778 414.956Z" fill="#FDAE03"/>
<path d="M51.9778 440.911C53.6224 440.911 54.9556 439.578 54.9556 437.933C54.9556 436.289 53.6224 434.956 51.9778 434.956C50.3332 434.956 49 436.289 49 437.933C49 439.578 50.3332 440.911 51.9778 440.911Z" fill="#FDAE03"/>
<path d="M51.9778 492.822C53.6224 492.822 54.9556 491.489 54.9556 489.845C54.9556 488.2 53.6224 486.867 51.9778 486.867C50.3332 486.867 49 488.2 49 489.845C49 491.489 50.3332 492.822 51.9778 492.822Z" fill="#FDAE03"/>
<path d="M51.9778 544.734C53.6224 544.734 54.9556 543.401 54.9556 541.756C54.9556 540.111 53.6224 538.778 51.9778 538.778C50.3332 538.778 49 540.111 49 541.756C49 543.401 50.3332 544.734 51.9778 544.734Z" fill="#FDAE03"/>
<path d="M51.9778 570.689C53.6224 570.689 54.9556 569.356 54.9556 567.711C54.9556 566.066 53.6224 564.733 51.9778 564.733C50.3332 564.733 49 566.066 49 567.711C49 569.356 50.3332 570.689 51.9778 570.689Z" fill="#FDAE03"/>
<path d="M51.9778 466.867C53.6224 466.867 54.9556 465.533 54.9556 463.889C54.9556 462.244 53.6224 460.911 51.9778 460.911C50.3332 460.911 49 462.244 49 463.889C49 465.533 50.3332 466.867 51.9778 466.867Z" fill="#FDAE03"/>
<path d="M51.9778 518.778C53.6224 518.778 54.9556 517.445 54.9556 515.8C54.9556 514.155 53.6224 512.822 51.9778 512.822C50.3332 512.822 49 514.155 49 515.8C49 517.445 50.3332 518.778 51.9778 518.778Z" fill="#FDAE03"/>
<path d="M77.9339 414.956C79.5784 414.956 80.9117 413.622 80.9117 411.978C80.9117 410.333 79.5784 409 77.9339 409C76.2893 409 74.9561 410.333 74.9561 411.978C74.9561 413.622 76.2893 414.956 77.9339 414.956Z" fill="#FDAE03"/>
<path d="M77.9339 440.911C79.5784 440.911 80.9117 439.578 80.9117 437.933C80.9117 436.289 79.5784 434.956 77.9339 434.956C76.2893 434.956 74.9561 436.289 74.9561 437.933C74.9561 439.578 76.2893 440.911 77.9339 440.911Z" fill="#FDAE03"/>
<path d="M77.9339 492.822C79.5784 492.822 80.9117 491.489 80.9117 489.845C80.9117 488.2 79.5784 486.867 77.9339 486.867C76.2893 486.867 74.9561 488.2 74.9561 489.845C74.9561 491.489 76.2893 492.822 77.9339 492.822Z" fill="#FDAE03"/>
<path d="M77.9339 544.734C79.5784 544.734 80.9117 543.401 80.9117 541.756C80.9117 540.111 79.5784 538.778 77.9339 538.778C76.2893 538.778 74.9561 540.111 74.9561 541.756C74.9561 543.401 76.2893 544.734 77.9339 544.734Z" fill="#FDAE03"/>
<path d="M77.9339 570.689C79.5784 570.689 80.9117 569.356 80.9117 567.711C80.9117 566.066 79.5784 564.733 77.9339 564.733C76.2893 564.733 74.9561 566.066 74.9561 567.711C74.9561 569.356 76.2893 570.689 77.9339 570.689Z" fill="#FDAE03"/>
<path d="M77.9339 466.867C79.5784 466.867 80.9117 465.533 80.9117 463.889C80.9117 462.244 79.5784 460.911 77.9339 460.911C76.2893 460.911 74.9561 462.244 74.9561 463.889C74.9561 465.533 76.2893 466.867 77.9339 466.867Z" fill="#FDAE03"/>
<path d="M77.9339 518.778C79.5784 518.778 80.9117 517.445 80.9117 515.8C80.9117 514.155 79.5784 512.822 77.9339 512.822C76.2893 512.822 74.9561 514.155 74.9561 515.8C74.9561 517.445 76.2893 518.778 77.9339 518.778Z" fill="#FDAE03"/>
<path d="M103.889 414.956C105.534 414.956 106.867 413.622 106.867 411.978C106.867 410.333 105.534 409 103.889 409C102.244 409 100.911 410.333 100.911 411.978C100.911 413.622 102.244 414.956 103.889 414.956Z" fill="#FDAE03"/>
<path d="M103.889 440.911C105.534 440.911 106.867 439.578 106.867 437.933C106.867 436.289 105.534 434.956 103.889 434.956C102.244 434.956 100.911 436.289 100.911 437.933C100.911 439.578 102.244 440.911 103.889 440.911Z" fill="#FDAE03"/>
<path d="M103.889 492.822C105.534 492.822 106.867 491.489 106.867 489.845C106.867 488.2 105.534 486.867 103.889 486.867C102.244 486.867 100.911 488.2 100.911 489.845C100.911 491.489 102.244 492.822 103.889 492.822Z" fill="#FDAE03"/>
<path d="M103.889 544.734C105.534 544.734 106.867 543.401 106.867 541.756C106.867 540.111 105.534 538.778 103.889 538.778C102.244 538.778 100.911 540.111 100.911 541.756C100.911 543.401 102.244 544.734 103.889 544.734Z" fill="#FDAE03"/>
<path d="M103.889 570.689C105.534 570.689 106.867 569.356 106.867 567.711C106.867 566.066 105.534 564.733 103.889 564.733C102.244 564.733 100.911 566.066 100.911 567.711C100.911 569.356 102.244 570.689 103.889 570.689Z" fill="#FDAE03"/>
<path d="M103.889 466.867C105.534 466.867 106.867 465.533 106.867 463.889C106.867 462.244 105.534 460.911 103.889 460.911C102.244 460.911 100.911 462.244 100.911 463.889C100.911 465.533 102.244 466.867 103.889 466.867Z" fill="#FDAE03"/>
<path d="M103.889 518.778C105.534 518.778 106.867 517.445 106.867 515.8C106.867 514.155 105.534 512.822 103.889 512.822C102.244 512.822 100.911 514.155 100.911 515.8C100.911 517.445 102.244 518.778 103.889 518.778Z" fill="#FDAE03"/>
<path d="M129.845 414.956C131.49 414.956 132.823 413.622 132.823 411.978C132.823 410.333 131.49 409 129.845 409C128.2 409 126.867 410.333 126.867 411.978C126.867 413.622 128.2 414.956 129.845 414.956Z" fill="#FDAE03"/>
<path d="M129.845 440.911C131.49 440.911 132.823 439.578 132.823 437.933C132.823 436.289 131.49 434.956 129.845 434.956C128.2 434.956 126.867 436.289 126.867 437.933C126.867 439.578 128.2 440.911 129.845 440.911Z" fill="#FDAE03"/>
<path d="M129.845 492.822C131.49 492.822 132.823 491.489 132.823 489.845C132.823 488.2 131.49 486.867 129.845 486.867C128.2 486.867 126.867 488.2 126.867 489.845C126.867 491.489 128.2 492.822 129.845 492.822Z" fill="#FDAE03"/>
<path d="M129.845 544.734C131.49 544.734 132.823 543.401 132.823 541.756C132.823 540.111 131.49 538.778 129.845 538.778C128.2 538.778 126.867 540.111 126.867 541.756C126.867 543.401 128.2 544.734 129.845 544.734Z" fill="#FDAE03"/>
<path d="M129.845 570.689C131.49 570.689 132.823 569.356 132.823 567.711C132.823 566.066 131.49 564.733 129.845 564.733C128.2 564.733 126.867 566.066 126.867 567.711C126.867 569.356 128.2 570.689 129.845 570.689Z" fill="#FDAE03"/>
<path d="M129.845 466.867C131.49 466.867 132.823 465.533 132.823 463.889C132.823 462.244 131.49 460.911 129.845 460.911C128.2 460.911 126.867 462.244 126.867 463.889C126.867 465.533 128.2 466.867 129.845 466.867Z" fill="#FDAE03"/>
<path d="M129.845 518.778C131.49 518.778 132.823 517.445 132.823 515.8C132.823 514.155 131.49 512.822 129.845 512.822C128.2 512.822 126.867 514.155 126.867 515.8C126.867 517.445 128.2 518.778 129.845 518.778Z" fill="#FDAE03"/>
<path d="M155.8 414.956C157.445 414.956 158.778 413.622 158.778 411.978C158.778 410.333 157.445 409 155.8 409C154.155 409 152.822 410.333 152.822 411.978C152.822 413.622 154.155 414.956 155.8 414.956Z" fill="#FDAE03"/>
<path d="M155.8 440.911C157.445 440.911 158.778 439.578 158.778 437.933C158.778 436.289 157.445 434.956 155.8 434.956C154.155 434.956 152.822 436.289 152.822 437.933C152.822 439.578 154.155 440.911 155.8 440.911Z" fill="#FDAE03"/>
<path d="M155.8 492.822C157.445 492.822 158.778 491.489 158.778 489.845C158.778 488.2 157.445 486.867 155.8 486.867C154.155 486.867 152.822 488.2 152.822 489.845C152.822 491.489 154.155 492.822 155.8 492.822Z" fill="#FDAE03"/>
<path d="M155.8 544.734C157.445 544.734 158.778 543.401 158.778 541.756C158.778 540.111 157.445 538.778 155.8 538.778C154.155 538.778 152.822 540.111 152.822 541.756C152.822 543.401 154.155 544.734 155.8 544.734Z" fill="#FDAE03"/>
<path d="M155.8 570.689C157.445 570.689 158.778 569.356 158.778 567.711C158.778 566.066 157.445 564.733 155.8 564.733C154.155 564.733 152.822 566.066 152.822 567.711C152.822 569.356 154.155 570.689 155.8 570.689Z" fill="#FDAE03"/>
<path d="M155.8 466.867C157.445 466.867 158.778 465.533 158.778 463.889C158.778 462.244 157.445 460.911 155.8 460.911C154.155 460.911 152.822 462.244 152.822 463.889C152.822 465.533 154.155 466.867 155.8 466.867Z" fill="#FDAE03"/>
<path d="M155.8 518.778C157.445 518.778 158.778 517.445 158.778 515.8C158.778 514.155 157.445 512.822 155.8 512.822C154.155 512.822 152.822 514.155 152.822 515.8C152.822 517.445 154.155 518.778 155.8 518.778Z" fill="#FDAE03"/>
<path d="M181.756 414.956C183.401 414.956 184.734 413.622 184.734 411.978C184.734 410.333 183.401 409 181.756 409C180.112 409 178.778 410.333 178.778 411.978C178.778 413.622 180.112 414.956 181.756 414.956Z" fill="#FDAE03"/>
<path d="M181.756 440.911C183.401 440.911 184.734 439.578 184.734 437.933C184.734 436.289 183.401 434.956 181.756 434.956C180.112 434.956 178.778 436.289 178.778 437.933C178.778 439.578 180.112 440.911 181.756 440.911Z" fill="#FDAE03"/>
<path d="M181.756 492.822C183.401 492.822 184.734 491.489 184.734 489.845C184.734 488.2 183.401 486.867 181.756 486.867C180.112 486.867 178.778 488.2 178.778 489.845C178.778 491.489 180.112 492.822 181.756 492.822Z" fill="#FDAE03"/>
<path d="M181.756 544.734C183.401 544.734 184.734 543.401 184.734 541.756C184.734 540.111 183.401 538.778 181.756 538.778C180.112 538.778 178.778 540.111 178.778 541.756C178.778 543.401 180.112 544.734 181.756 544.734Z" fill="#FDAE03"/>
<path d="M181.756 570.689C183.401 570.689 184.734 569.356 184.734 567.711C184.734 566.066 183.401 564.733 181.756 564.733C180.112 564.733 178.778 566.066 178.778 567.711C178.778 569.356 180.112 570.689 181.756 570.689Z" fill="#FDAE03"/>
<path d="M181.756 466.867C183.401 466.867 184.734 465.533 184.734 463.889C184.734 462.244 183.401 460.911 181.756 460.911C180.112 460.911 178.778 462.244 178.778 463.889C178.778 465.533 180.112 466.867 181.756 466.867Z" fill="#FDAE03"/>
<path d="M181.756 518.778C183.401 518.778 184.734 517.445 184.734 515.8C184.734 514.155 183.401 512.822 181.756 512.822C180.112 512.822 178.778 514.155 178.778 515.8C178.778 517.445 180.112 518.778 181.756 518.778Z" fill="#FDAE03"/>
<path d="M207.711 414.956C209.356 414.956 210.689 413.622 210.689 411.978C210.689 410.333 209.356 409 207.711 409C206.067 409 204.733 410.333 204.733 411.978C204.733 413.622 206.067 414.956 207.711 414.956Z" fill="#FDAE03"/>
<path d="M207.711 440.911C209.356 440.911 210.689 439.578 210.689 437.933C210.689 436.289 209.356 434.956 207.711 434.956C206.067 434.956 204.733 436.289 204.733 437.933C204.733 439.578 206.067 440.911 207.711 440.911Z" fill="#FDAE03"/>
<path d="M207.711 492.822C209.356 492.822 210.689 491.489 210.689 489.845C210.689 488.2 209.356 486.867 207.711 486.867C206.067 486.867 204.733 488.2 204.733 489.845C204.733 491.489 206.067 492.822 207.711 492.822Z" fill="#FDAE03"/>
<path d="M207.711 544.734C209.356 544.734 210.689 543.401 210.689 541.756C210.689 540.111 209.356 538.778 207.711 538.778C206.067 538.778 204.733 540.111 204.733 541.756C204.733 543.401 206.067 544.734 207.711 544.734Z" fill="#FDAE03"/>
<path d="M207.711 570.689C209.356 570.689 210.689 569.356 210.689 567.711C210.689 566.066 209.356 564.733 207.711 564.733C206.067 564.733 204.733 566.066 204.733 567.711C204.733 569.356 206.067 570.689 207.711 570.689Z" fill="#FDAE03"/>
<path d="M207.711 466.867C209.356 466.867 210.689 465.533 210.689 463.889C210.689 462.244 209.356 460.911 207.711 460.911C206.067 460.911 204.733 462.244 204.733 463.889C204.733 465.533 206.067 466.867 207.711 466.867Z" fill="#FDAE03"/>
<path d="M207.711 518.778C209.356 518.778 210.689 517.445 210.689 515.8C210.689 514.155 209.356 512.822 207.711 512.822C206.067 512.822 204.733 514.155 204.733 515.8C204.733 517.445 206.067 518.778 207.711 518.778Z" fill="#FDAE03"/>
</g>
</g>
<defs>
<clipPath id="clip0_303_3542">
<rect width="1440" height="800.01" fill="white"/>
</clipPath>
<clipPath id="clip1_303_3542">
<rect width="162" height="162" fill="white" transform="translate(1239 609)"/>
</clipPath>
<clipPath id="clip2_303_3542">
<rect width="162" height="162" fill="white" transform="translate(49 409)"/>
</clipPath>
</defs>
</svg>
