<svg width="88" height="28" viewBox="0 0 88 28" fill="none" xmlns="http://www.w3.org/2000/svg">
<path d="M24.9396 8.19166V19.4789C24.9396 20.0639 24.4667 20.5384 23.8834 20.5384H19.9449C19.5577 20.5384 19.1788 20.4271 18.8526 20.2178L12.6974 16.2647C12.5586 16.1754 12.3808 16.1754 12.2418 16.2647L5.68627 20.4875C5.56523 20.5655 5.49214 20.6999 5.49214 20.8442V22.0416C5.49214 22.2758 5.6812 22.4655 5.91462 22.4655H23.8834C24.4667 22.4655 24.9396 22.9399 24.9396 23.525V26.9155C24.9396 27.5006 24.4667 27.975 23.8834 27.975H1.05618C0.472958 27.975 0 27.5006 0 26.9155V18.165C0 17.8037 0.183353 17.4674 0.486688 17.2727L5.49214 14.0579L12.242 9.72268C12.3808 9.63347 12.5586 9.63347 12.6976 9.72268L19.1224 13.8489C19.2631 13.9392 19.4475 13.8379 19.4475 13.6705V10.8585C19.4475 10.714 19.3742 10.5794 19.2527 10.5017L12.6974 6.2915C12.5586 6.20229 12.3808 6.20229 12.2418 6.2915L5.49193 10.6269L0.650185 13.7362C0.36903 13.9167 0 13.7142 0 13.3793V8.19166C0 7.83036 0.183353 7.49407 0.486688 7.29932L11.3307 0.334388C12.025 -0.111463 12.9144 -0.111463 13.6087 0.334388L24.4529 7.29932C24.7563 7.49407 24.9396 7.83036 24.9396 8.19166Z" fill="#065F46"/>
<path d="M36.3989 0H39.2753V12.5907H36.3989V7.5904H32.4437V12.5907H29.5673V0H32.4437V4.82044H36.3989V0ZM45.6563 12.8425C43.0136 12.8425 40.8922 10.774 40.8922 8.09402C40.8922 5.414 43.0136 3.34553 45.6563 3.34553C48.299 3.34553 50.4204 5.414 50.4204 8.09402C50.4204 10.774 48.299 12.8425 45.6563 12.8425ZM45.6563 10.2165C46.8248 10.2165 47.7237 9.37108 47.7237 8.09402C47.7237 6.81697 46.8248 5.97159 45.6563 5.97159C44.4878 5.97159 43.5889 6.81697 43.5889 8.09402C43.5889 9.37108 44.4878 10.2165 45.6563 10.2165ZM57.7486 3.59734H60.4453V12.5907H57.7486V11.7453C57.2632 12.4108 56.3643 12.8425 55.1778 12.8425C53.362 12.8425 51.8159 11.5475 51.8159 9.11927V3.59734H54.5126V8.72356C54.5126 9.83874 55.2137 10.3604 56.0767 10.3604C57.0654 10.3604 57.7486 9.78478 57.7486 8.50772V3.59734ZM64.8842 6.22341C64.8842 7.24865 69.3067 6.56515 69.3067 9.8927C69.3067 11.9612 67.5089 12.8425 65.5673 12.8425C63.7695 12.8425 62.4032 12.159 61.7021 10.7021L64.0392 9.37108C64.2729 10.0546 64.7763 10.4323 65.5673 10.4323C66.2145 10.4323 66.5381 10.2344 66.5381 9.87471C66.5381 8.88544 62.1156 9.40706 62.1156 6.29535C62.1156 4.3348 63.7695 3.34553 65.6392 3.34553C67.0954 3.34553 68.3898 3.99305 69.1449 5.27011L66.8437 6.51119C66.5921 6.04354 66.2325 5.71978 65.6392 5.71978C65.1718 5.71978 64.8842 5.89965 64.8842 6.22341ZM72.9703 9.17323C73.3119 10.1085 74.1389 10.4323 75.1276 10.4323C75.8647 10.4323 76.4939 10.1445 76.8535 9.7488L79.0108 10.9899C78.1299 12.213 76.7996 12.8425 75.0917 12.8425C72.0175 12.8425 70.1118 10.774 70.1118 8.09402C70.1118 5.414 72.0534 3.34553 74.8939 3.34553C77.5187 3.34553 79.4603 5.37803 79.4603 8.09402C79.4603 8.47175 79.4243 8.83148 79.3524 9.17323H72.9703ZM72.9164 7.15872H76.7816C76.4939 6.11549 75.6849 5.73776 74.8759 5.73776C73.8512 5.73776 73.168 6.24139 72.9164 7.15872ZM36.5786 15.1575H39.4551V27.7482H37.2978L32.4437 20.9132V27.7482H29.5673V15.1575H31.7246L36.5786 21.9924V15.1575ZM45.832 28C43.1893 28 41.0679 25.9315 41.0679 23.2515C41.0679 20.5715 43.1893 18.503 45.832 18.503C48.4747 18.503 50.5961 20.5715 50.5961 23.2515C50.5961 25.9315 48.4747 28 45.832 28ZM45.832 25.3739C47.0006 25.3739 47.8994 24.5286 47.8994 23.2515C47.8994 21.9744 47.0006 21.1291 45.832 21.1291C44.6634 21.1291 43.7645 21.9744 43.7645 23.2515C43.7645 24.5286 44.6634 25.3739 45.832 25.3739ZM61.6541 18.7548H64.5306L61.6541 27.7482H59.1372L57.699 22.9457L56.2608 27.7482H53.7439L50.8674 18.7548H53.7439L55.0383 23.5753L56.4406 18.7548H58.9575L60.3597 23.5753L61.6541 18.7548Z" fill="#1C1917"/>
</svg>
