<svg width="491" height="227" viewBox="0 0 491 227" fill="none" xmlns="http://www.w3.org/2000/svg">
<path fill-rule="evenodd" clip-rule="evenodd" d="M133.544 110.656H70.7104V88.8594L125.362 2.75852H160.007V88.4759H176.243V110.656H160.007V133.668H133.544V110.656ZM98.5797 88.4759H134.056V32.929H133.033L98.5797 87.4531V88.4759ZM298.374 68.3409C298.311 111.487 278.431 136.544 245.512 136.544C212.529 136.48 192.522 111.359 192.65 68.3409C192.714 25.4503 212.657 0.96875 245.512 0.96875C278.303 0.96875 298.438 25.5142 298.374 68.3409ZM220.839 68.3409C220.775 98.5114 230.491 113.597 245.512 113.597C260.47 113.597 270.186 98.5114 270.122 68.3409C270.122 38.6179 260.406 23.6605 245.512 23.6605C230.555 23.6605 220.903 38.6179 220.839 68.3409ZM378.462 110.656H315.628V88.8594L370.28 2.75852H404.925V88.4759H421.161V110.656H404.925V133.668H378.462V110.656ZM343.498 88.4759H378.974V32.929H377.951L343.498 87.4531V88.4759ZM0.5 180.759V215.668H7.88068V205.747L11.5114 201.315L21.0739 215.668H29.9034L16.7955 196.389L29.75 180.759H20.9034L8.34091 196.151H7.88068V180.759H0.5ZM40.9688 215.668V200.531C40.9801 199.406 41.196 198.446 41.6165 197.651C42.0483 196.844 42.6392 196.23 43.3892 195.81C44.1506 195.389 45.0256 195.179 46.0142 195.179C47.4915 195.179 48.6392 195.628 49.4574 196.526C50.2869 197.423 50.696 198.679 50.6847 200.293V215.668H57.946V198.997C57.9574 196.952 57.5824 195.196 56.821 193.73C56.071 192.253 55.0142 191.122 53.6506 190.338C52.2983 189.543 50.7131 189.145 48.8949 189.145C46.9062 189.145 45.2528 189.588 43.9347 190.474C42.6165 191.349 41.6619 192.56 41.071 194.105H40.7642V180.759H33.7074V215.668H40.9688ZM68.8707 214.491C70.8026 215.616 73.0923 216.179 75.7401 216.179C78.3878 216.179 80.6719 215.616 82.5923 214.491C84.5241 213.355 86.0128 211.776 87.0582 209.753C88.1037 207.719 88.6264 205.361 88.6264 202.679C88.6264 199.974 88.1037 197.611 87.0582 195.588C86.0128 193.554 84.5241 191.974 82.5923 190.849C80.6719 189.713 78.3878 189.145 75.7401 189.145C73.0923 189.145 70.8026 189.713 68.8707 190.849C66.9503 191.974 65.4673 193.554 64.4219 195.588C63.3764 197.611 62.8537 199.974 62.8537 202.679C62.8537 205.361 63.3764 207.719 64.4219 209.753C65.4673 211.776 66.9503 213.355 68.8707 214.491ZM78.7912 209.531C77.9844 210.213 76.9787 210.554 75.7741 210.554C74.5582 210.554 73.5355 210.213 72.706 209.531C71.8878 208.838 71.2685 207.895 70.848 206.702C70.4389 205.509 70.2344 204.151 70.2344 202.628C70.2344 201.105 70.4389 199.747 70.848 198.554C71.2685 197.361 71.8878 196.418 72.706 195.724C73.5355 195.031 74.5582 194.685 75.7741 194.685C76.9787 194.685 77.9844 195.031 78.7912 195.724C79.598 196.418 80.206 197.361 80.6151 198.554C81.0355 199.747 81.2457 201.105 81.2457 202.628C81.2457 204.151 81.0355 205.509 80.6151 206.702C80.206 207.895 79.598 208.838 78.7912 209.531ZM75.7401 182.19L79.1662 186.349H85.3537V186.111L78.4332 178.611H73.0298L66.1264 186.111V186.349H72.3139L75.7401 182.19ZM100.859 215.668V200.531C100.871 199.406 101.081 198.446 101.49 197.651C101.911 196.844 102.49 196.23 103.229 195.81C103.979 195.389 104.842 195.179 105.82 195.179C107.274 195.179 108.416 195.634 109.246 196.543C110.075 197.44 110.484 198.69 110.473 200.293V215.668H117.734V198.997C117.734 196.963 117.359 195.213 116.609 193.747C115.859 192.27 114.808 191.134 113.456 190.338C112.104 189.543 110.518 189.145 108.7 189.145C106.757 189.145 105.104 189.594 103.74 190.491C102.376 191.378 101.405 192.582 100.825 194.105H100.518V189.486H93.598V215.668H100.859ZM129.452 225.06C131.134 225.707 133.151 226.031 135.503 226.031C138.003 226.031 140.213 225.651 142.134 224.889C144.065 224.139 145.577 223.014 146.668 221.514C147.759 220.014 148.304 218.151 148.304 215.923V189.486H141.094V193.884H140.821C140.491 193.179 140.02 192.463 139.406 191.736C138.804 190.997 138.009 190.384 137.02 189.895C136.031 189.395 134.804 189.145 133.338 189.145C131.418 189.145 129.651 189.639 128.037 190.628C126.435 191.616 125.151 193.105 124.185 195.094C123.219 197.082 122.736 199.56 122.736 202.526C122.736 205.423 123.207 207.821 124.151 209.719C125.105 211.605 126.384 213.009 127.986 213.929C129.599 214.838 131.389 215.293 133.355 215.293C134.741 215.293 135.935 215.088 136.935 214.679C137.935 214.27 138.753 213.741 139.389 213.094C140.026 212.446 140.503 211.759 140.821 211.031H141.128V215.821C141.128 217.616 140.611 218.895 139.577 219.656C138.554 220.429 137.253 220.815 135.673 220.815C134.616 220.815 133.719 220.673 132.98 220.389C132.253 220.116 131.668 219.753 131.224 219.298C130.781 218.844 130.457 218.355 130.253 217.832L123.537 218.736C123.832 220.111 124.474 221.349 125.463 222.452C126.452 223.554 127.781 224.423 129.452 225.06ZM138.622 208.969C137.815 209.548 136.827 209.838 135.656 209.838C134.463 209.838 133.457 209.543 132.639 208.952C131.832 208.349 131.213 207.503 130.781 206.412C130.361 205.31 130.151 204.003 130.151 202.491C130.151 201.003 130.361 199.69 130.781 198.554C131.202 197.418 131.821 196.531 132.639 195.895C133.457 195.247 134.463 194.923 135.656 194.923C136.827 194.923 137.821 195.236 138.639 195.861C139.457 196.486 140.082 197.366 140.514 198.503C140.946 199.628 141.162 200.957 141.162 202.491C141.162 204.026 140.94 205.344 140.497 206.446C140.065 207.537 139.44 208.378 138.622 208.969ZM179.618 194.94V189.486H174.692V183.213H167.43V189.486H163.851V194.94H167.43V208.577C167.419 210.293 167.777 211.713 168.504 212.838C169.232 213.963 170.249 214.793 171.555 215.327C172.874 215.861 174.408 216.094 176.158 216.026C177.101 215.991 177.902 215.895 178.561 215.736C179.22 215.588 179.732 215.457 180.095 215.344L178.953 209.94C178.771 209.974 178.51 210.026 178.169 210.094C177.828 210.151 177.487 210.179 177.146 210.179C176.658 210.179 176.226 210.105 175.851 209.957C175.487 209.81 175.203 209.554 174.999 209.19C174.794 208.815 174.692 208.293 174.692 207.622V194.94H179.618ZM184.598 189.486V215.668H191.859V189.486H184.598ZM180.524 178.355L185.723 186.111H190.854L187.223 178.355H180.524ZM197.926 189.486V215.668H205.188V199.952C205.188 198.986 205.375 198.145 205.75 197.429C206.125 196.702 206.631 196.139 207.267 195.741C207.915 195.332 208.642 195.128 209.449 195.128C210.642 195.128 211.602 195.509 212.33 196.27C213.068 197.031 213.438 198.054 213.438 199.338V215.668H220.477V199.679C220.477 198.315 220.847 197.219 221.585 196.389C222.324 195.548 223.352 195.128 224.67 195.128C225.83 195.128 226.795 195.491 227.568 196.219C228.341 196.946 228.727 198.037 228.727 199.491V215.668H235.972V198.06C235.972 195.219 235.205 193.026 233.67 191.48C232.148 189.923 230.165 189.145 227.722 189.145C225.801 189.145 224.136 189.599 222.727 190.509C221.33 191.406 220.364 192.605 219.83 194.105H219.557C219.136 192.582 218.295 191.378 217.034 190.491C215.773 189.594 214.244 189.145 212.449 189.145C210.676 189.145 209.153 189.588 207.881 190.474C206.608 191.361 205.699 192.571 205.153 194.105H204.847V189.486H197.926ZM267.243 194.94V189.486H262.317V183.213H255.055V189.486H251.476V194.94H255.055V208.577C255.044 210.293 255.402 211.713 256.129 212.838C256.857 213.963 257.874 214.793 259.18 215.327C260.499 215.861 262.033 216.094 263.783 216.026C264.726 215.991 265.527 215.895 266.186 215.736C266.845 215.588 267.357 215.457 267.72 215.344L266.578 209.94C266.396 209.974 266.135 210.026 265.794 210.094C265.453 210.151 265.112 210.179 264.771 210.179C264.283 210.179 263.851 210.105 263.476 209.957C263.112 209.81 262.828 209.554 262.624 209.19C262.419 208.815 262.317 208.293 262.317 207.622V194.94H267.243ZM280.047 215.668V200.531C280.058 199.406 280.274 198.446 280.695 197.651C281.126 196.844 281.717 196.23 282.467 195.81C283.229 195.389 284.104 195.179 285.092 195.179C286.57 195.179 287.717 195.628 288.536 196.526C289.365 197.423 289.774 198.679 289.763 200.293V215.668H297.024V198.997C297.036 196.952 296.661 195.196 295.899 193.73C295.149 192.253 294.092 191.122 292.729 190.338C291.376 189.543 289.791 189.145 287.973 189.145C285.984 189.145 284.331 189.588 283.013 190.474C281.695 191.349 280.74 192.56 280.149 194.105H279.842V180.759H272.786V215.668H280.047ZM305.989 215.293C307.295 215.872 308.784 216.162 310.455 216.162C311.75 216.162 312.892 215.991 313.881 215.651C314.869 215.298 315.716 214.815 316.42 214.202C317.125 213.577 317.688 212.855 318.108 212.037H318.312V215.668H325.199V198.009C325.199 196.452 324.898 195.116 324.295 194.003C323.693 192.878 322.869 191.957 321.824 191.241C320.79 190.526 319.602 189.997 318.261 189.656C316.932 189.315 315.54 189.145 314.085 189.145C311.994 189.145 310.153 189.463 308.562 190.099C306.983 190.724 305.693 191.622 304.693 192.793C303.693 193.952 303.023 195.327 302.682 196.918L309.398 197.463C309.648 196.599 310.159 195.884 310.932 195.315C311.705 194.736 312.744 194.446 314.051 194.446C315.29 194.446 316.244 194.741 316.915 195.332C317.597 195.923 317.938 196.759 317.938 197.838V197.94C317.938 198.497 317.727 198.918 317.307 199.202C316.886 199.486 316.21 199.702 315.278 199.849C314.347 199.986 313.119 200.134 311.597 200.293C310.301 200.418 309.062 200.634 307.881 200.94C306.71 201.247 305.665 201.702 304.744 202.304C303.824 202.906 303.097 203.702 302.562 204.69C302.028 205.679 301.761 206.901 301.761 208.355C301.761 210.082 302.136 211.526 302.886 212.685C303.648 213.832 304.682 214.702 305.989 215.293ZM315.364 210.52C314.545 210.94 313.602 211.151 312.534 211.151C311.42 211.151 310.5 210.895 309.773 210.384C309.057 209.861 308.699 209.105 308.699 208.116C308.699 207.435 308.875 206.866 309.227 206.412C309.58 205.946 310.074 205.577 310.71 205.304C311.347 205.031 312.091 204.832 312.943 204.707C313.341 204.651 313.784 204.588 314.273 204.52C314.761 204.44 315.25 204.355 315.739 204.264C316.227 204.162 316.665 204.054 317.051 203.94C317.449 203.815 317.761 203.679 317.989 203.531V206.31C317.989 207.23 317.756 208.054 317.29 208.781C316.824 209.509 316.182 210.088 315.364 210.52ZM312.347 181.321L305.477 186.622H310.693L314.341 183.759L317.938 186.622H323.17L316.267 181.321H312.347ZM325.369 177.23L321.381 183.622H325.489L330.994 177.23H325.369ZM332.037 225.264C332.844 225.412 333.707 225.486 334.628 225.486C336.423 225.486 337.957 225.196 339.23 224.616C340.503 224.048 341.554 223.236 342.384 222.179C343.224 221.134 343.889 219.906 344.378 218.497L354.554 189.486H346.866L341.395 208.713H341.122L335.702 189.486H328.065L337.457 216.418L337.031 217.526C336.713 218.344 336.298 218.923 335.787 219.264C335.287 219.605 334.69 219.764 333.997 219.741C333.315 219.719 332.548 219.577 331.696 219.315L330.06 224.736C330.582 224.952 331.241 225.128 332.037 225.264ZM383.805 194.94V189.486H378.879V183.213H371.618V189.486H368.038V194.94H371.618V208.577C371.607 210.293 371.964 211.713 372.692 212.838C373.419 213.963 374.436 214.793 375.743 215.327C377.061 215.861 378.595 216.094 380.345 216.026C381.288 215.991 382.089 215.895 382.749 215.736C383.408 215.588 383.919 215.457 384.283 215.344L383.141 209.94C383.02 209.963 382.864 209.993 382.673 210.031C382.577 210.05 382.471 210.071 382.357 210.094C382.016 210.151 381.675 210.179 381.334 210.179C380.845 210.179 380.413 210.105 380.038 209.957C379.675 209.81 379.391 209.554 379.186 209.19C378.982 208.815 378.879 208.293 378.879 207.622V194.94H383.805ZM388.786 189.486V215.668H396.047V200.855C396.047 199.787 396.286 198.844 396.763 198.026C397.251 197.207 397.911 196.571 398.74 196.116C399.581 195.651 400.536 195.418 401.604 195.418C402.104 195.418 402.655 195.457 403.257 195.537C403.859 195.616 404.331 195.707 404.672 195.81V189.366C404.354 189.287 403.984 189.224 403.564 189.179C403.143 189.134 402.751 189.111 402.388 189.111C400.922 189.111 399.626 189.531 398.501 190.372C397.376 191.202 396.575 192.429 396.098 194.054H395.825V189.486H388.786ZM410.926 215.293C412.233 215.872 413.722 216.162 415.392 216.162C416.688 216.162 417.83 215.991 418.818 215.651C419.807 215.298 420.653 214.815 421.358 214.202C422.062 213.577 422.625 212.855 423.045 212.037H423.25V215.668H430.136V198.009C430.136 196.452 429.835 195.116 429.233 194.003C428.631 192.878 427.807 191.957 426.761 191.241C425.727 190.526 424.54 189.997 423.199 189.656C421.869 189.315 420.477 189.145 419.023 189.145C416.932 189.145 415.091 189.463 413.5 190.099C411.92 190.724 410.631 191.622 409.631 192.793C408.631 193.952 407.96 195.327 407.619 196.918L414.335 197.463C414.585 196.599 415.097 195.884 415.869 195.315C416.642 194.736 417.682 194.446 418.989 194.446C420.227 194.446 421.182 194.741 421.852 195.332C422.534 195.923 422.875 196.759 422.875 197.838V197.94C422.875 198.497 422.665 198.918 422.244 199.202C421.824 199.486 421.148 199.702 420.216 199.849C419.284 199.986 418.057 200.134 416.534 200.293C415.239 200.418 414 200.634 412.818 200.94C411.648 201.247 410.602 201.702 409.682 202.304C408.761 202.906 408.034 203.702 407.5 204.69C406.966 205.679 406.699 206.901 406.699 208.355C406.699 210.082 407.074 211.526 407.824 212.685C408.585 213.832 409.619 214.702 410.926 215.293ZM420.301 210.52C419.483 210.94 418.54 211.151 417.472 211.151C416.358 211.151 415.438 210.895 414.71 210.384C413.994 209.861 413.636 209.105 413.636 208.116C413.636 207.435 413.812 206.866 414.165 206.412C414.517 205.946 415.011 205.577 415.648 205.304C416.284 205.031 417.028 204.832 417.881 204.707C418.278 204.651 418.722 204.588 419.21 204.52C419.699 204.44 420.188 204.355 420.676 204.264C421.165 204.162 421.602 204.054 421.989 203.94C422.386 203.815 422.699 203.679 422.926 203.531V206.31C422.926 207.23 422.693 208.054 422.227 208.781C421.761 209.509 421.119 210.088 420.301 210.52ZM443.281 215.668V200.531C443.293 199.406 443.503 198.446 443.912 197.651C444.332 196.844 444.912 196.23 445.651 195.81C446.401 195.389 447.264 195.179 448.241 195.179C449.696 195.179 450.838 195.634 451.668 196.543C452.497 197.44 452.906 198.69 452.895 200.293V215.668H460.156V198.997C460.156 196.963 459.781 195.213 459.031 193.747C458.281 192.27 457.23 191.134 455.878 190.338C454.526 189.543 452.94 189.145 451.122 189.145C449.179 189.145 447.526 189.594 446.162 190.491C444.798 191.378 443.827 192.582 443.247 194.105H442.94V189.486H436.02V215.668H443.281ZM471.874 225.06C473.555 225.707 475.572 226.031 477.925 226.031C480.425 226.031 482.635 225.651 484.555 224.889C486.487 224.139 487.999 223.014 489.089 221.514C490.18 220.014 490.726 218.151 490.726 215.923V189.486H483.516V193.884H483.243C482.913 193.179 482.442 192.463 481.828 191.736C481.226 190.997 480.43 190.384 479.442 189.895C478.453 189.395 477.226 189.145 475.76 189.145C473.839 189.145 472.072 189.639 470.459 190.628C468.857 191.616 467.572 193.105 466.607 195.094C465.641 197.082 465.158 199.56 465.158 202.526C465.158 205.423 465.629 207.821 466.572 209.719C467.527 211.605 468.805 213.009 470.408 213.929C472.021 214.838 473.811 215.293 475.777 215.293C477.163 215.293 478.357 215.088 479.357 214.679C480.357 214.27 481.175 213.741 481.811 213.094C482.447 212.446 482.925 211.759 483.243 211.031H483.55V215.821C483.55 217.616 483.033 218.895 481.999 219.656C480.976 220.429 479.675 220.815 478.095 220.815C477.038 220.815 476.141 220.673 475.402 220.389C474.675 220.116 474.089 219.753 473.646 219.298C473.203 218.844 472.879 218.355 472.675 217.832L465.959 218.736C466.254 220.111 466.896 221.349 467.885 222.452C468.874 223.554 470.203 224.423 471.874 225.06ZM481.044 208.969C480.237 209.548 479.249 209.838 478.078 209.838C476.885 209.838 475.879 209.543 475.061 208.952C474.254 208.349 473.635 207.503 473.203 206.412C472.783 205.31 472.572 204.003 472.572 202.491C472.572 201.003 472.783 199.69 473.203 198.554C473.624 197.418 474.243 196.531 475.061 195.895C475.879 195.247 476.885 194.923 478.078 194.923C479.249 194.923 480.243 195.236 481.061 195.861C481.879 196.486 482.504 197.366 482.936 198.503C483.368 199.628 483.584 200.957 483.584 202.491C483.584 204.026 483.362 205.344 482.919 206.446C482.487 207.537 481.862 208.378 481.044 208.969Z" fill="black"/>
</svg>
